<!-- Generator: Adobe Illustrator 23.0.1, SVG Export Plug-In  -->
<svg version="1.1" xmlns="http://www.w3.org/2000/svg" xmlns:xlink="http://www.w3.org/1999/xlink" x="0px" y="0px"
	 width="139.93px" height="82.19px" viewBox="0 0 139.93 82.19" style="enable-background:new 0 0 139.93 82.19;"
	 xml:space="preserve">
<style type="text/css">
	.st0{fill:#15363B;}
</style>
<defs>
</defs>
<g>
	<path class="st0" d="M36.92,56.97C36.92,56.97,36.92,56.96,36.92,56.97c-0.03,0.06-0.07,0.12-0.1,0.18
		C36.86,57.09,36.89,57.02,36.92,56.97z"/>
	<path class="st0" d="M139.93,14.96c-0.02-0.5-0.07-0.99-0.19-1.43c0,0,0-0.01,0-0.01c-0.08-0.29-0.18-0.55-0.32-0.79
		c0,0-0.01-0.01-0.01-0.01c-0.11-0.19-0.24-0.36-0.4-0.51c-0.06-0.06-0.12-0.11-0.19-0.16c-1.16-0.87-3.16-1.68-3.16-1.68
		s-0.14-0.18-0.27-0.44h0c-0.03-0.06-0.06-0.12-0.09-0.19c0,0,0-0.01,0-0.01c-0.03-0.07-0.05-0.13-0.07-0.2c0,0,0-0.01,0-0.01
		c-0.02-0.07-0.03-0.14-0.04-0.21c0,0,0-0.01,0-0.01c-0.01-0.07-0.01-0.15,0-0.22c0-0.03,0-0.07,0-0.1c0-0.01,0-0.02,0-0.03
		c-0.01-0.03-0.02-0.06-0.03-0.09c0,0,0-0.01,0-0.01c-0.01-0.03-0.03-0.06-0.05-0.09c-0.01-0.01-0.01-0.02-0.02-0.03
		c-0.02-0.03-0.04-0.05-0.06-0.08c-0.01-0.01-0.02-0.02-0.03-0.03c-0.02-0.02-0.05-0.05-0.07-0.07c-0.01-0.01-0.03-0.02-0.04-0.04
		c-0.01-0.01-0.01-0.01-0.02-0.02c0,0,0,0,0,0c-0.42-0.36-1.09-0.63-1.09-0.63s-0.01-0.01-0.02-0.03c0,0,0,0-0.01-0.01
		c-0.01-0.02-0.03-0.04-0.06-0.08c0,0,0,0,0,0c-0.05-0.07-0.13-0.16-0.23-0.28c0,0-0.01-0.01-0.01-0.01h0
		c-0.41-0.48-1.17-1.25-2.01-1.59c-1.25-0.5-1.89-0.94-1.89-0.94s-0.66-2.13-0.75-3.33c-0.1-1.2-0.87-1.74-1.58-1.57
		c-0.03,0.01-0.06,0.02-0.09,0.04c0.02,1.18-0.25,2.77-0.2,3.39c0.09,1.06,1.01,1.67,1.01,1.67s-1.75,0.04-2.52,0.11
		c-0.77,0.06-2.01,0.06-2.01,0.06c-0.36,0.03-2.12,0.66-2.12,0.66s-1.21-1.48-1.39-2.19c-0.18-0.71-1.67-1.2-2.51-1.13
		c-0.05,0-0.11,0.01-0.17,0.02c0,0-0.01,0-0.02,0c-0.05,0.01-0.11,0.02-0.17,0.04c0,0,0,0-0.01,0c-0.86,0.24-2.08,1.07-2.7,2.6
		c-0.19,0.46-0.34,1.06-0.47,1.69c0.66,0.25,1.45,0.69,1.5,1.36c0.09,1.16,1.24,2.67,0.48,2.29c-0.76-0.38-2.34-0.98-1.38,0.04
		s2.7,1.9,2.96,2.31c0.25,0.42,0.07,1.74-0.37,1.71c-0.44-0.04-1.97-1.88-2.35-0.18c-0.37,1.71,0.47,1.27-0.93,2.99
		c-1.39,1.72-1.55,0.71-2.25,2.81c-0.71,2.1-0.33,4.11-1.63,4.21c-1.3,0.1-2.83-0.79-3.46,0.5c-0.62,1.29-1.65,3.05-1.87,2.99
		c-0.22-0.05,1.94-4.82,1.22-3.82c-0.72,1.01-1.84,2.48-1.99,2.42c-0.15-0.06,0.75-2.47,1.78-3.21c1.03-0.74,1.32-0.83,1.91-0.74
		c0.59,0.1,1.03,1.08,1.52-0.2c0.48-1.28,1.66-3.85,2.68-4.73c1.02-0.88,1.46-1.79,1.46-1.79l-0.31-2.96c0,0-0.44,0.91-1.99,2.49
		c-1.55,1.58-3.02,3.23-4.16,3.54c-1.14,0.31-0.86,1.09-1.31,1.78c-0.45,0.69-2.74,2.19-2.67,0.36c0.07-1.83-0.1-2.18,0.92-3.06
		c0.38-0.33,0.7-0.69,0.99-1.06c0.01,0,0.02-0.01,0.04-0.01c-0.61,0.17-1.23,0.3-1.84,0.39c0.04-0.01,0.07-0.01,0.11-0.02
		c-0.73,1.05-2.94,2.33-3.47,1.96c-0.32-0.22-0.14-1,0.11-1.7c-0.25,0-0.47,0-0.67,0.01c-0.09,0-0.17,0.01-0.25,0.01
		c-0.1,0.52-0.31,1-0.31,1s-0.77,0.06-1.58,0.9c-0.81,0.84-2.28,0.67-3.53,0.77c-1.26,0.1-0.49,1.21-1.53,1.58
		c-1.04,0.38-1.27,1.07-1.59,1.97c-0.32,0.9-1.71,2.86-3.42,3.39c-1.71,0.53,0.49-2.37,0.49-2.37s2.1-1.63,2.43-2.43
		c0.32-0.8,1.81-1.7,2.46-2.05c0.24-0.13,0.37-0.5,0.43-0.93c0,0,0,0,0,0c-0.64,0.09-1.33,0.18-2.05,0.24
		c0.35,0.89-1.65,2.26-2.68,2.88c-1.3,0.78-1.16,0.09-1.45,0.12c-0.29,0.02-0.09,1.27-0.77,1.33c-0.68,0.05-0.93-0.7-1.24-0.97
		c-0.31-0.27-0.78,1.13-2.25,1.06c-1.46-0.08,0.56-1.5,0.56-1.5s-1.95-0.04-2.27-0.5c-0.33-0.46-1.31-0.57-2.04-0.03
		c-0.73,0.54-2.6,1.47-3.93,0.71c-0.51-0.3-0.51-0.76-0.32-1.24c0.03-0.01,0.07-0.01,0.11-0.02c-0.04,0.01-0.08,0.01-0.12,0.02
		c-0.3,0.05-0.62,0.1-0.95,0.16c0.04,0.72-1.67,1.55-2.45,1.77c-0.95,0.27-3.34,0.76-4.6,0.86c-0.7,0.06-0.67-0.57-0.51-1.15
		c-0.32,0.07-0.61,0.14-0.87,0.2c0.31,0.92-1.12,1.9-1.95,2.96c-1.06,1.35-0.33,1.97,0.9,0.32c1.23-1.65,2.81-1.29,3.58-1.36
		c0.77-0.06,5.75-0.95,8.09-0.94c2.33,0.01-0.44,0.62-0.88,1.14c-0.44,0.52-2.73,1.1-3.58,1.36c-0.85,0.26-4.98,0.89-6.12,1.27
		s0,0-1.08,2.23c-1.08,2.23-1.78,3.25-3.15,4.34c-1.37,1.08-1.89,0.64-2.5,2.73c-0.61,2.09-1.91,2.78-3.26,2.98
		c-1.34,0.21-2.34,1.06-2.3,1.64s-0.02,0.97,1.24,0.97c1.26,0,1.69-1.89,2.59-1.67c0.89,0.22,1.34-0.3,2.23-1.25
		c0.9-0.95,2.43-3.6,3.26-4.15c0.83-0.55,1.72,2.1,1.26,3.59c-0.46,1.49-1.71,2.86-1.71,2.86s-1.54,0.22-2.12,0.17
		c-0.59-0.05-0.14,0.69-0.54,1.79c-0.4,1.1-2,0.45-2.5,0.4c-0.49-0.06-2.16-0.31-2.75-0.36c-0.59-0.05-0.77,1.33-0.77,1.33
		s-1.96-0.23-3.02-0.15s-0.41-1.42-0.65-2.09c-0.25-0.66-1.35,1.28-1.85,1.22c-0.49-0.06-0.93-0.7-1.63-0.94
		c-0.7-0.24-0.47-1.03,0.17-1.47c0.64-0.44,0.37-1.49,0.37-1.49c0.24-0.7,1.91,0.82,2.49,0.77c0.58-0.05,1.58-0.91,2.48-1.76
		c0.9-0.85,2.76-1.88,3.71-2.15c0.95-0.27-0.29-1.14,0.88-2.4c1.16-1.26,2.6-1.47,3.31-2.31c0.71-0.83,1.34-1.47,1.5-3.04
		s-0.17-3.29,0.05-4.18c0.09-0.35,0.34-0.85,0.62-1.33c-0.7,0.21-1.43,0.44-2.19,0.68c0.04-0.01,0.07-0.02,0.11-0.03
		c0.15,0.77,0.31,1.85,0.27,2.73c-0.07,1.56-1.06,1.35-0.46,1.49c0.6,0.15,0.48,1.13-0.15,1.76c-0.63,0.63-1.36,1.18-1.83,1.41
		c-0.47,0.23-1.9-0.62-2.29-0.69c-0.39-0.07-4.29,1.03-4.67,1.15c-0.38,0.13-1.2-0.39-1.2-0.39s-2.81,1.3-3.27,1.62
		s-2.84,3.34-4.17,3.74c-0.67,0.2-0.84-0.4-0.84-1.05c-0.48,0.69-0.92,1.39-1.3,2.04c0.41,0.22,0.78,0.47,0.99,0.65
		c0.3,0.25-0.66,1.81-1.67,3.26c0.32,1.09,0.71,2.56,0.83,2.86c0.15,0.35-0.23,1.71,0.19,2.4c0.29,0.48,0.64,3.17,0.83,4.77
		c-0.05,0.01-0.11,0.02-0.16,0.03c-0.43-1.7-1.21-4.69-1.42-5.1c-0.29-0.58-1.06-1.12-0.78-2.12c0.14-0.47,0.14-1.51,0.15-2.35
		c-0.63,0.88-1.23,1.65-1.51,1.98c-0.77,0.91,0.87,3.32,1.83,4.69c0.62,0.89,0.83,2.41,0.91,3.38c-0.03,0.03-0.06,0.06-0.09,0.09
		c0.13-0.12,0.26-0.23,0.39-0.32c0.05-0.03,0.09-0.06,0.14-0.09c0.03-0.02,0.06-0.03,0.09-0.05c0.05-0.02,0.09-0.04,0.14-0.06
		c0.03-0.01,0.06-0.02,0.09-0.03c0.04-0.01,0.09-0.02,0.13-0.03c0.03-0.01,0.06-0.01,0.09-0.02c0.04-0.01,0.08-0.01,0.12-0.01
		c0.03,0,0.06,0,0.09,0c0.04,0,0.08,0.01,0.12,0.02c0.03,0.01,0.05,0.01,0.08,0.02c0.04,0.01,0.08,0.03,0.11,0.05
		c0.02,0.01,0.05,0.02,0.07,0.03c0.04,0.02,0.08,0.05,0.11,0.08c0.02,0.02,0.04,0.03,0.06,0.04c0.06,0.05,0.11,0.11,0.16,0.18
		c0.28,0.38,0.54,0.72,0.84,1.06c-0.08-0.94-0.2-1.94-0.35-2.43c-0.33-1.06-2.13-2.37-1.46-3.15c0.66-0.78,0.34-1.84,0.74-2.84
		s0.12-1.46-0.44-0.93c-0.56,0.53,0.19-0.62-0.46-1.17c-0.65-0.55-0.33-2.63,0.23-1.71c0.56,0.92,1.06-0.33,1.45,0
		s-0.18,0.74-0.25,1.35c-0.07,0.61-0.09,1.94,0.18,2.28c0.27,0.34,0.44,2.51,0.44,2.51s1.17-0.46,0.45,1.05
		c-0.73,1.51-0.75,1.15-0.42,2.33c0.25,0.88,1.06,2.9,1.38,4.09c0.04,0.03,0.09,0.07,0.13,0.1c0.09-0.84,0.23-2.11,0.17-2.88
		c-0.11-1.32,0.18-5.22,0.68-5.02c0.4,0.16,1.41,6.76,1.04,9.72c-0.08-0.09-0.15-0.17-0.23-0.26c0.49,0.54,0.96,1.15,1.41,1.8
		c0.1,0.14,0.19,0.28,0.29,0.42c0.14,0.22,0.28,0.44,0.42,0.66c0.11,0.18,0.23,0.37,0.34,0.56c1.27,0.5,3.08,1.57,4.14,2.22
		c-0.01-0.96-0.04-3.49,0.02-3.99c0.07-0.61,1.28,0.86,1.88,0.82c0.6-0.05,0.59,2.86-0.49,2.94c-1.08,0.09-0.54,0.77-0.54,0.77
		l0.15,1.8c0,0-1.27-0.74-2.24-2.24c-0.52-0.8-1.46-1.19-2.33-1.38c-0.01-0.01-0.01-0.02-0.02-0.03c0.88,1.43,1.68,2.87,1.57,3.78
		c-0.05,0.44-0.12,0.83-0.2,1.2c0-0.01,0-0.02,0.01-0.03c0.49,0.41,1.02,0.91,1.37,1.4c0.82,1.14,0.97,0.04,2,0.81
		c1.03,0.76,1.07,1.24,2.01,2.38c0.94,1.13,1.16,0.87,1.72,0.35c0.56-0.53,2.07,0.2,3.07,0.6c1,0.4,1.38-0.84,3.05-1.21
		c1.66-0.38-2.28,1.76-2.61,2.15c-0.33,0.39-1.46-0.12-2.33-0.42c-0.87-0.29-1.13,0.94-2.22,1.03c-1.08,0.09-0.93-1.01-1.35-1.71
		c-0.42-0.69-2.59-2.09-3.37-2.75c-0.46-0.39-1.12-1.07-1.58-1.56c-0.06,0.28-0.12,0.56-0.17,0.85c-0.01,0.04-0.01,0.07-0.02,0.1
		c0.9,0.87,1.67,2.24,0.95,2.48c-0.54,0.18-1.32-0.61-1.88-1.32c-0.16,0.18-0.34,0.42-0.55,0.74c0.12,0.05,0.23,0.1,0.34,0.14
		c1.75,0.71,1.08,1.37,2.54,1.49c1.46,0.12,0.96,1.37,2.45,1.86c1.49,0.48,2.15,1.16,2.15,1.16s-1.64,0.62-2.48,0.8
		c-0.83,0.19-0.91-0.77-1.1-1.61c-0.19-0.83-1.62-0.6-2.86-0.98c-1.24-0.38,0.13,1.56,0.52,1.89c0.23,0.19,0.21,0.98,0.16,1.6
		c1.5,0.55,3.74,0.1,3.88,0.49c0.01,0.02,0.02,0.03,0.03,0.05c0,0,0.01,0.01,0.01,0.01c0.01,0.01,0.03,0.03,0.04,0.04
		c0.01,0,0.01,0.01,0.02,0.01c0.02,0.02,0.05,0.03,0.08,0.05c0,0,0,0,0,0c0.74,0.43,3.42,0.91,4.4,1.15
		c1.11,0.27,4.15,0.39,5.49,0.53c1.34,0.13,5.91,1.22,7.04,1.73c1.13,0.51,3.36,1.18,4.2,1.11c0.84-0.07,1.27-0.71,1.27-0.71
		s2.31,0.18,3.13-0.13c0.82-0.31,0.04-2.54,0.04-2.54s1.08-0.09,1.16-0.58c0.08-0.49-1.38-2.07-1.77-2.4
		c-0.39-0.33-0.94-1.13-1.7-1.56c-0.58-0.32-3.35-0.4-5.55-0.51c0.05,0,0.1,0.01,0.16,0.01c-0.87,0.82-2.46,2.26-3.05,2.39
		c-0.61,0.14,1.11-1.54,2.06-2.44c-0.34-0.02-0.66-0.04-0.94-0.07c-2.07-0.2-3.65-0.19-3.65-0.19s-0.01-1.57,0.43-2.21
		c0.43-0.64,0.38-1.24,0.53-2.46c0.14-1.22,0,0,0.53-0.89c0.34-0.57,0.57-1.99,0.68-2.92c0-0.01,0-0.01,0-0.02
		c0.01-0.07,0.02-0.14,0.02-0.2c0,0,0-0.01,0-0.01c0.02-0.13,0.03-0.24,0.04-0.34c0,0,0-0.01,0-0.01c0.01-0.14,0.02-0.24,0.03-0.29
		c0-0.01,0-0.01,0-0.02c0-0.01,0-0.01,0-0.01l1.83-1.36c0,0,4.71-4.61,5.25-5.38c0.03-0.04,0.07-0.08,0.1-0.12
		c0.01-0.01,0.03-0.03,0.04-0.04c0.02-0.02,0.05-0.04,0.07-0.06c0.02-0.01,0.04-0.03,0.06-0.04c0.02-0.01,0.05-0.03,0.07-0.04
		c0.02-0.01,0.05-0.02,0.07-0.04c0.02-0.01,0.04-0.02,0.07-0.03c0.02-0.01,0.03-0.01,0.05-0.02c0,0-0.01,0-0.01,0
		c-0.76-0.46-0.69-1.66-0.73-2.26c-0.04-0.55,2.09,1.14,3.08,1.96c0.07-0.02,0.14-0.03,0.22-0.05c0.15-0.04,0.38-0.09,0.68-0.14
		c-0.07,0.01-0.14,0.02-0.2,0.03c-0.33-0.66-0.71-1.6-0.54-2.19c0.28-0.99,0.26-1.23,1.22,0.14c0.46,0.66,0.86,1.29,1.15,1.77
		c-0.3,0.04-0.58,0.08-0.84,0.11c0.53-0.08,1.14-0.15,1.77-0.23c-0.39-0.63-0.54-1.76-0.33-2.4c0.29-0.87,1.32,1.35,2.32,1.75
		c0.29,0.12,0.46,0.24,0.55,0.37c0.17-0.02,0.34-0.04,0.5-0.05l-0.09-1.78c0,0-0.47-2.22,0.06-1.97c0.53,0.25,1,1.6,1.02,1.81
		c0.02,0.22,0.29-0.9,0.79-1.08c0.5-0.19,0.79-0.14,0.79-0.14s0.05-1.24-0.25-1.29c-0.3-0.05-1.52,0.12-1.52,0.12
		s0.61-1.43,1.02-1.83c0.41-0.4,0.64-1.07,1.85-1.46c1.21-0.39,1.93-0.52,2.44-0.42s1.12,2.1,0.6,2.07
		c-0.51-0.03-1.5-0.46-2.21-0.33c-0.72,0.13-1.75,0-1.7,0.65c0.05,0.65,0.45,1.93,1.33,2.08c0.89,0.15,3.56-0.14,4.19-1.43
		c0.62-1.29,2.47-2.82,3.27-2.89c0.8-0.06,2.89,0.57,3.36,1.04c0.48,0.47,1.37,1.64,0.58,1.7c-0.8,0.06-1.43-1.42-2.26-0.91
		c-0.83,0.5-2.8,0.59-3.28,1.87c-0.48,1.28-0.25,1.4-1.25,1.63c-1,0.23-4.15,0.99-4.6,0.81c-0.45-0.18-1.61-1.04-1.87-0.65
		c-0.26,0.39-1.17,1.77-1.17,1.77l-0.07,0.53c0.39-0.04,0.62-0.06,0.62-0.06s-0.03,0-0.08,0.01c0.17-0.19,0.34-0.34,0.48-0.4
		c0.42-0.18,0.99,1.45,1.82,1.75c0.83,0.3,1.67-0.94,2.45-1.22c0.78-0.28,0.72-0.06,1.41-0.62c0.68-0.57,0.81,0.96,0.53,1.12
		c-0.28,0.17-0.56,0.26-0.92,0.37c-0.36,0.1-2.49,1.66-3.56,1.96c-0.58,0.17-1.43-0.06-2.09-0.3c0.03,0.41,0.08,0.95,0.14,1.57
		c0.62,0.17,1.35,0.57,1.88,0.7c0.89,0.22,1.37,0.76,2.46,0.68c1.09-0.09,0.72,0.74-0.29,0.9c-1.01,0.15-2.25,0.18-2.77-0.07
		c-0.25-0.12-0.68-0.22-1.07-0.29c0.29,2.59,0.65,5.59,0.75,6.83c0.03,0.32,0.06,0.63,0.09,0.94c0.67-0.15,1.62-0.37,1.5,0
		c-0.14,0.42-0.94,0.85-1.41,0.98c0.15,1.49,0.3,2.9,0.31,4.09c0.02,1.69,2.28,5.75,3.17,6.28c0.89,0.53,2.02-0.41,2.02-0.41
		s1.04,0.88,2.38,1.02c1.34,0.13,1.98-1.01,1.98-1.01s0.62,0.19,1.34,0.13c0.72-0.06,1.12-1.18,1.12-1.18s1.31-0.23,1.62-0.86
		c0.31-0.63-1.33-1.47-0.78-2.12c0.48-0.57,0.12-0.14,0.33-0.21l0,0c0.01,0,0.01-0.01,0.02-0.01c0.03-0.01,0.06-0.03,0.11-0.06
		c0.46-0.28,1.26,0.62,1.29,0.98c0,0.04,0.01,0.08,0.03,0.13c0.58-0.07,1.56,0.1,2.36,0.43c0.9,0.36,1.34-0.59,1.55-1.33
		c0.04-0.99-0.23-2.16-0.71-2.74c-0.67-0.79-2.94-2.97-3.21-3.85c-0.14-0.43-0.21-1.84-0.24-3.22c0,0,0,0,0,0
		c-0.45,0.07-0.94-0.04-1.02-0.51c-0.09-0.55,0.54-0.75,1-0.81c0-0.45,0-0.85,0.01-1.16c0,0.02,0,0.04,0,0.06
		c-0.22,0.21-0.65,0.39-1.28,0.33c-1.32-0.11-0.55-0.54-0.55-0.54s1.29-0.32,1.8-0.29c0.03,0,0.06,0.01,0.09,0.02
		c-0.01,0.03-0.01,0.06-0.02,0.09c0.25-1.37,1.78-3.67,2.2-4.52c0.18-0.37,0.5-0.79,0.87-1.22c0,0,0,0.01-0.01,0.01
		c-0.32-0.7-0.65-0.45-1.59-0.62c-1.11-0.2-0.42-1.64-0.42-1.64c1.25-0.76,1.85,0.36,2.26,0.91c0.12,0.16,0.19,0.48,0.23,0.82
		c0.43-0.45,0.89-0.9,1.3-1.3v0c0.03-0.03,0.06-0.06,0.09-0.09c0.04-0.04,0.07-0.07,0.11-0.11c0.06-0.06,0.11-0.11,0.17-0.17
		c0.03-0.03,0.06-0.06,0.09-0.09c0.05-0.05,0.1-0.1,0.15-0.15c0.03-0.03,0.06-0.07,0.1-0.1c0.04-0.04,0.08-0.08,0.11-0.12
		c0.06-0.07,0.12-0.14,0.18-0.2c0.77-0.91,2.25-3.57,2.25-3.57s0.02-0.01,0.05-0.03c0.01-0.01,0.02-0.02,0.04-0.03
		c0.01-0.01,0.02-0.01,0.03-0.02c0.04-0.03,0.09-0.06,0.15-0.1c0.15-0.1,0.35-0.24,0.59-0.4c0.01-0.01,0.02-0.01,0.03-0.02
		c0.08-0.05,0.16-0.11,0.24-0.17c0.01-0.01,0.02-0.01,0.03-0.02c0.19-0.13,0.38-0.27,0.59-0.42c0.01-0.01,0.02-0.02,0.03-0.03
		c0.09-0.06,0.18-0.13,0.27-0.2c0.02-0.01,0.04-0.03,0.06-0.04c0.09-0.07,0.18-0.13,0.27-0.2c0.02-0.01,0.03-0.02,0.05-0.04
		c0.21-0.16,0.42-0.32,0.63-0.49c0.02-0.02,0.04-0.03,0.06-0.05c0.08-0.06,0.16-0.12,0.23-0.19c0.03-0.02,0.06-0.05,0.09-0.07
		c0.07-0.06,0.14-0.12,0.21-0.18c0.03-0.02,0.05-0.04,0.08-0.07c0.09-0.08,0.18-0.16,0.27-0.23c0.08-0.07,0.17-0.16,0.25-0.24
		c0.03-0.03,0.05-0.05,0.08-0.08c0.06-0.06,0.12-0.13,0.18-0.2c0.03-0.03,0.05-0.06,0.08-0.08c0.08-0.09,0.16-0.19,0.24-0.28
		c0.02-0.02,0.04-0.05,0.06-0.07c0.06-0.08,0.13-0.16,0.19-0.24c0.03-0.04,0.06-0.08,0.1-0.12c0.05-0.07,0.11-0.14,0.16-0.21
		c0.03-0.04,0.06-0.08,0.09-0.12c0.07-0.1,0.15-0.21,0.22-0.31c0.03-0.05,0.06-0.09,0.1-0.14c0.04-0.07,0.09-0.13,0.13-0.2
		c0.04-0.06,0.07-0.11,0.11-0.17c0.04-0.06,0.08-0.12,0.12-0.18c0.03-0.06,0.07-0.11,0.1-0.17c0.06-0.1,0.12-0.2,0.18-0.3
		c0.04-0.06,0.07-0.12,0.11-0.19c0.03-0.05,0.06-0.1,0.09-0.15c0.04-0.06,0.07-0.13,0.11-0.19c0.03-0.05,0.05-0.09,0.08-0.14
		c0.06-0.11,0.12-0.21,0.17-0.32c0.02-0.04,0.04-0.08,0.06-0.12h0c0.25-0.5,0.45-0.94,0.55-1.27c0.38-1.24,1.21-3,1.28-3.61
		c0.07-0.61,1.45-1.57,1.71-2.8c0.08-0.35,0.24-0.96,0.44-1.69c-0.74,0.68-1.55,1.39-1.76,1.56c-0.41,0.32-1.14-0.56-1.87-0.65
		c-0.74-0.09-0.7,0.35-2.51,0.57c-1.8,0.22-8.67,0.12-9.04-0.07c-0.38-0.19-2.89-1.44-1.55-1.19c1.33,0.26,1.22-1.12,1.62-1.66
		c0.39-0.54,4.95-4.55,6.42-5.4s3.55-2.11,4.61-2.49c1.06-0.38,2.06-0.68,1.79-0.36c-0.27,0.31-5.22,3.04-6.5,4.31
		c-1.28,1.27-3.38,3.33-2.66,4.08c0.72,0.74,1.63,1.18,3.82,1.22c1.92,0.04,5.45,0.62,7.96-1.1c0.21-0.81,0.43-1.67,0.59-2.44
		c0,0,0,0,0,0c0.01-0.04,0.02-0.09,0.03-0.13c0.01-0.04,0.02-0.08,0.02-0.11c0.01-0.04,0.02-0.09,0.03-0.13
		c0.01-0.04,0.02-0.08,0.02-0.12c0.01-0.04,0.02-0.08,0.02-0.13c0.01-0.04,0.01-0.08,0.02-0.12c0.01-0.04,0.01-0.08,0.02-0.12
		c0.01-0.04,0.01-0.07,0.02-0.11c0.01-0.04,0.01-0.08,0.02-0.11c0.01-0.04,0.01-0.07,0.01-0.11c0-0.04,0.01-0.07,0.01-0.1
		c0-0.04,0.01-0.07,0.01-0.1c0-0.03,0.01-0.06,0.01-0.09c0-0.04,0.01-0.07,0.01-0.11c0-0.02,0-0.05,0-0.07c0-0.06,0-0.11,0-0.16
		c-0.01-1.57,2.82-4.1,3.65-4.29c0.05-0.01,0.11-0.03,0.17-0.05c-0.57-0.29-1.33-0.63-1.89-0.7c-1.03-0.14-1,0.3-2.29,0.48
		c-1.3,0.18-2.07-0.34-1.6-2.64c0.47-2.3,0.58-2.74,2.25-3.68c1.67-0.94,3.48-2.03,4.72-2.06c1.24-0.03,1.51-0.2,2.15-0.39
		c0.64-0.2,1.8-0.29,1.52-0.12c-0.28,0.17-0.63,0.34-1.18,0.75s-1.8,0.22-2.44,0.49c-0.63,0.27,0.28,0.78-0.64,1.14
		c-0.92,0.37-2.15,0.46-1.6,0.93c0.55,0.47,2.58,0.38,1.96,0.86c-0.62,0.49-2.15-0.48-2.78-0.14c-0.63,0.34-2.39,1.07-2.39,1.07
		s-0.78,1.16-0.74,1.66c0.04,0.51,0.14,0.79,1.6,0.82c1.46,0.03,1.85-0.51,2.49,0.09c0.5,0.48,1.43,0.69,2.25,0.98
		c1-0.35,2.25-0.81,3.21-1.11l0,0c0.11-0.03,0.22-0.07,0.32-0.1c0.01,0,0.02-0.01,0.02-0.01c0.1-0.03,0.19-0.06,0.27-0.08
		c0.01,0,0.03-0.01,0.04-0.01c0.08-0.02,0.16-0.04,0.24-0.06c0.01,0,0.02,0,0.03-0.01c0.07-0.02,0.14-0.03,0.21-0.04
		c0.05-0.01,0.11-0.02,0.17-0.03c0.01,0,0.02,0,0.03-0.01v0c1.38-0.26,4.96-1,5.73-1.41c0.75-0.4,0.9-1.89,0.92-2.1
		c-0.56,0.05-1.23,0.19-1.65,0.22c-0.77,0.06-2,0.55-2.37,0.77c-0.37,0.22-0.69-0.14-2.04-0.03c-1.35,0.11-2.94-0.25-2.94-0.25
		c-1.48-0.27,1.5-0.7,2.57-0.69c1.07,0.01,1.96,0.23,2.55,0.28c0.59,0.05,1.8-0.63,2.36-0.87c0.32-0.14,1.15-0.09,1.81-0.03
		c0.29-0.63,0.7-1.69,0.77-2.78C139.93,15.94,139.94,15.45,139.93,14.96C139.93,14.96,139.93,14.96,139.93,14.96L139.93,14.96z
		 M103.82,30.59c0,0-0.17,1.57-0.63,1.8c-0.47,0.23-0.08-0.97-0.1-1.26L103.82,30.59z M103.71,27.98c0,0-0.39-0.07-0.74,0.45
		c-0.35,0.51-0.43,1.88-0.43,1.88l-0.61,0.92c0,0-0.46-2.1,0.35-2.94C103.08,27.45,103.71,27.98,103.71,27.98z M102.83,37.57
		c-0.31-0.27-0.16-0.77-0.78-1.2c-0.62-0.44-0.82-0.52-1.79-0.54c-0.97-0.02-2.73-0.07-3.01,0.05c-0.28,0.12-0.73,0.54-0.73,0.54
		s-0.57-1.02,0.61-0.92s1.64-1.3,2.22-1.35s1.76-1.11,1.68-0.82c-0.07,0.3-1.96,1.03-1.53,1.48s1.3,0.48,2.07,0.42
		c0.77-0.06,0.74,0.72,1.05,0.98c0.31,0.27,0.97-0.08,1,0.4C103.67,37.12,103.15,37.84,102.83,37.57z M102.95,39.9
		c-0.04,0.37-1.62,0.64-1.84,0.66c-0.22,0.02-0.22-0.93-0.22-0.93s0.86-0.14,1.3-0.18C102.62,39.41,102.99,39.53,102.95,39.9z
		 M99.59,38.93c-0.52-0.1-0.04-1.38-0.04-1.38s0.63-0.27,1.12,0.35C101.16,38.51,100.11,39.03,99.59,38.93z M95.64,36.31
		c-0.71-0.33-1.71,0.43-2.54,0.98c-0.83,0.55-2.37,3.11-3.69,4.87c-1.32,1.76-2.76,1.88-3.51,2.32c-0.74,0.45,0.6-1.02,0.87-1.24
		c0.27-0.22,0.58-1.21,0-1.17c-0.58,0.05-0.98-1.28-0.98-1.28c0.04-0.68,0.66-0.25,1.1,0.4c0.44,0.64,1.83-0.15,2.65-0.89
		c0.81-0.75,3.31-3.57,4.3-4.53C94.83,34.82,96.34,36.64,95.64,36.31z M95.36,38.95c-0.58,0.05-0.44,0.52-0.9,0.95
		c-0.45,0.43-0.41-1.52-0.41-1.52c0.15-0.5,0.55-0.43,1.25-0.2C96,38.42,95.94,38.91,95.36,38.95z M91.76,42.45
		c-0.96,0.17-1.03-0.7-1.03-0.7s1.7-1.79,2.28-1.84C93.59,39.87,92.72,42.28,91.76,42.45z M86.51,46.08
		c-0.84,0.46-0.8-0.32-0.8-0.32l0.74-0.45c0,0,1.01-0.76,1.64-1.3C88.73,43.47,87.35,45.62,86.51,46.08z M89.52,35.24
		c0.33,0.46,0.55,0.73,0.55,0.73s-0.36,0.32-0.41,1c-0.04,0.68-0.27,1.48-1.04,1.54s-0.29,1.19-1.22,0.49
		c-0.93-0.7,0.6-3.45,0.6-3.45c0.27-0.22,1.47-2.26,2.12-1.43C90.76,34.95,89.2,34.78,89.52,35.24z M99.01,25.15
		c-0.72-0.53,0.75-1.52,0.75-1.52l0.27,0.95C100.04,24.58,99.74,25.67,99.01,25.15z M100.24,31.95c0.57-0.14,0.85-0.36,0.8,0.32
		c-0.04,0.68-0.74,0.45-1.32,0.49c-0.58,0.05-0.34-0.56-0.34-0.56S99.67,32.09,100.24,31.95z M99.02,26.41c0,0-0.39,1.2-0.69,1.12
		s-0.26-0.76-0.26-0.76C98.23,26.28,99.02,26.41,99.02,26.41z M98.42,29.86c0.71,0.33,0.75,0.81,0.69,1.31
		c-0.06,0.49-0.84,0.46-1.47-0.17c-0.63-0.63-0.15-0.67-0.81-0.42c-0.66,0.25-1.04,1.54-1.95,2.39c-0.9,0.85-0.66,0.25-0.07-0.87
		c0.59-1.12,2.1-2.89,2.1-2.89C97.26,28.69,97.71,29.53,98.42,29.86z M97.62,34.4c-0.73,0.54-0.1-1.26-0.1-1.26s0.96-0.17,1.38,0.28
		C99.33,33.87,98.35,33.85,97.62,34.4z M95.79,33.38c0,0,0.37-0.22,0.77-0.16c0.39,0.07,0,1.26-0.39,1.2
		C95.77,34.35,95.79,33.38,95.79,33.38z M102.8,23.97c0.24,1.83-0.43,3.05-0.42,2.07c0.02-0.97-0.18-2.22-0.18-2.22
		s-0.93,1.73-1.05,2.61s0.06,1.94,0,2.43c-0.06,0.49-1.34,1.47-1.34,1.47l-0.13-0.38c0,0,0.87-0.07,0.81-0.84
		c-0.06-0.77,0.23-3.13,0.9-4.54C102.06,23.15,102.56,22.14,102.8,23.97z M73.7,27c0,0,0.52-0.72,1.77-0.92
		c1.25-0.2,2.05-1.14,2.76-1.97c0.71-0.83,0.93-0.56,1.62-0.42c0.69,0.14,0.8,0.32,0.78,1.2c-0.03,0.88-0.52,0.82-2.4,1.55
		c-1.88,0.73-2.79,1.59-4.04,1.69C72.92,28.22,73.7,27,73.7,27z M63.48,35.21c0,0,1.07-2.42,1.49-3.23c0.42-0.81,1.66-2.37,2.9-2.66
		c1.24-0.29,1.33-0.4,2.34-1.16c1.01-0.76,2.53,0.09,2.41,0.97c-0.12,0.88-2.28,1.84-3.07,1.71s-1.71,0.43-2.73,2.36
		c-1.01,1.93-0.31,2.16,0.18,2.22c0.49,0.06,1.55-0.03,2.14-1.24c0.58-1.21,1.46-1.19,2.97-1.7c1.51-0.51,1.38-0.99,1.93-2.59
		c0.55-1.6,2.2-1.63,2.89-1.5c0.69,0.14,0.53,0.54,1.65-0.04c1.12-0.58,1.46-0.02,1.95,0.04c0.49,0.06,1.32-1.76,2.86-3.05
		c1.55-1.29,1.35-0.11,1.99,0.52c0.63,0.63-1.56,2.36-2.25,3.49s-1.78,2.09-2,1.72c-0.22-0.37-0.43-0.55-2.4,1.55
		c-1.97,2.1-2.76,4.3-5.18,3.24c-2.42-1.07-2,0.45-3.2,1.33c-1.19,0.87-4.53,0.46-5.79,0.47C63.28,37.65,63.48,35.21,63.48,35.21z
		 M64.75,40.16c0,0,1.35-1.28,2.7-1.48c1.34-0.21,0.83,0.61,1.21,1.75c0.38,1.14,1.01-0.76,0.95-1.44c-0.05-0.68,0.85-0.36,2.2-0.47
		c1.35-0.11,1.02-0.67,2.35-0.97c1.34-0.3,0.26,0.85-0.29,1.19c-0.56,0.34-0.02,0.97-0.3,2.26c-0.29,1.29-1.3,3.21-1.67,3.34
		s-1.68-0.35-1.9-0.72c-0.22-0.37-0.02-1.46-0.41-1.52c-0.39-0.07-0.53,0.63-0.69,1.03s-0.79-0.13-1.9-0.72
		c-1.12-0.59-1.97-0.33-3.43-0.4C62.07,41.93,64.75,40.16,64.75,40.16z M65.63,54.24c0,0-0.96,0.08-1.68,0.14
		c-0.72,0.06-1.39-0.73-1.39-0.73s2.38-0.55,3.98-0.2C68.13,53.8,65.63,54.24,65.63,54.24z M69.18,56.25c0,0-0.8,0.55-1.53,0.49
		c-0.73-0.06-0.82-1.14-0.82-1.14C67.42,55.43,69.18,56.25,69.18,56.25z M57.24,61.33c0.05,0.6-1.01,0.93-1.1,1.42
		c-0.08,0.49,0.15,1.8-1.38,0.96c0,0-0.54-2.26,0.03-2.66C55.37,60.63,57.2,60.73,57.24,61.33z M56.05,54.04
		c0,0,1.34-2.89,1.68-1.71c0.34,1.18,0.58,2.74-0.03,2.66S55.63,54.8,56.05,54.04z M56.46,59.09c0,0,1.04-2.14,2.14-1.99
		c1.1,0.15,1.42,1.1,1.09,1.49c-0.33,0.39-1.27,0.71-1.37,1.08C58.23,60.04,56.3,60.08,56.46,59.09z M60.1,53.23
		c0.58-0.29,2.39,1.14,2.45,1.86c0.06,0.72-0.97-0.04-1.45,0c-0.48,0.04-0.53,0.89-1.32,0.11C58.99,54.41,60.1,53.23,60.1,53.23z
		 M58.46,61.35c0,0,1.84-1.24,2.25-0.54c0.42,0.69,0.16,1.92-1.04,2.14C58.48,63.17,58.01,61.87,58.46,61.35z M60.79,57.29
		c0,0,0.27-1.11,1.39-0.72c1.12,0.39,1.21,1.48,0.12,1.44C61.21,57.99,61.27,57.25,60.79,57.29z M61.44,59.3c0,0,1.66-0.38,2.2,0.31
		s-0.74,1.39-1.7,1.47C60.98,61.15,61.44,59.3,61.44,59.3z M63.61,57.79c0,0,0.59-0.17,1.09,0.03c0.5,0.2,0.32,0.94-0.63,1.14
		S63.61,57.79,63.61,57.79z M64.01,56.67c-1.21-0.02-0.93-1.01-0.93-1.01s2.39-0.31,3.15,0.11C66.99,56.19,65.22,56.69,64.01,56.67z
		 M66.64,48.87c0.66,0.09,2.17,1.57,2.17,1.57s-1.15,0.24-1.75-0.01S65.98,48.78,66.64,48.87z M67.8,48.78
		c-0.37-0.04-1.37-0.69-2.72-1.17c-1.35-0.47,0.44-0.84,1.37-1.06c0.93-0.22,1.8,1.53,1.8,1.53S68.17,48.82,67.8,48.78z
		 M64.27,45.71c-0.97-0.29-0.44-1.79-0.44-1.79c0.26-0.39,0.4-0.47,0.98-0.44c0.59,0.03,0.91,0.44,1.04,1.15
		C65.99,45.35,65.25,46,64.27,45.71z M59.78,43.67c0.53,0.54,0.62,1.6,0.76,2.17c0.14,0.57,0.09,1.16-0.48,1.3
		c-0.57,0.14-0.97,0.08-0.97,0.08S59.26,43.13,59.78,43.67z M56.39,46.18c0,0,1.06-1.35,1.49-0.8c0.43,0.55,0.33,1.72-0.43,1.88
		C56.69,47.41,56.25,46.87,56.39,46.18z M55.01,45.9c0.61,0.34,1.54,1.04,1.01,1.67c-0.53,0.63-1.25,0.2-1.46-0.08
		s-0.27-0.95-0.27-0.95S54.4,45.56,55.01,45.9z M53.19,47.4c0.59,0.05,3.02,1.31,5.36,1.41c2.34,0.1,1.97-0.84,3.66-1.66
		c1.68-0.82,1.52,0.75,0.64,0.73c-0.88-0.03-2.42,1.36-2.42,1.36s2.59-0.4,4.5,0.32c1.9,0.72,0.09,1.16-0.91,0.75
		c-1-0.4-2.43,0-3.69,0.1c-1.25,0.1-0.74,0.45,0.54,0.64c1.28,0.19,3.23,0.23,3.23,0.23c0.57-0.14,0.43,0.55-0.12,0.98
		c-0.55,0.43-2.65-0.37-2.65-0.37s-2.22,0.18-2.92-0.06s-0.75-0.81-1.56-1.23c-0.81-0.42-0.84,0.46-2.71,0.12
		c-1.87-0.33-1.06-1.08-0.08-0.97c0.98,0.12-0.46-0.93-1.55-1.14S52.6,47.36,53.19,47.4z M49.96,47.18c1.4,0.47,1.64,2.2,1.64,2.2
		s-1.14,0.38-1.63,0.33c-0.49-0.06-1.9-0.72-1.9-0.72s0.42-0.81-0.04-1.75C47.56,46.3,48.56,46.71,49.96,47.18z M53.63,33.57
		c0,0,1.33-0.4,1.45-0.12c0.12,0.28-0.76,1.42-1.34,1.47C53.16,34.97,53.63,33.57,53.63,33.57z M45.26,37.06
		c1.71-0.43,2.38-0.58,2.92-1.21c0.53-0.63,1.96-1.03,2.34-1.06s0.38-1.29,1.13-0.48c0.75,0.81,1.2,0.39,1.24,0.87
		c0.04,0.48,0.73,1.79-0.71,2.1c-1.43,0.31-2.12,1.43-3.05,1.99c-0.93,0.56-2.49,0.49-2.34-0.1C46.79,39.17,43.54,37.49,45.26,37.06
		z M40.77,41.6c-0.57,0.14-0.24-1.83-0.24-1.83s1.08,0.2,1.56,0.07c0.48-0.14,0.32-0.8,1.28-0.98s1.08,1.37,0.95,2.16
		c-0.13,0.79-1.39,0.89-2.05,1.14C41.61,42.41,41.34,41.46,40.77,41.6z M42.58,44.86c-0.65,0.34,0.02-0.97,0.02-0.97
		s0.86-1.43,1.26-1.27C44.26,42.78,43.23,44.51,42.58,44.86z M46.4,47.66c0.05,0.58,0.17,0.86-0.21,0.99c0,0-1.21-1.75-1.89-1.79
		c-0.68-0.04-1.77-0.25-1.41-0.57c0.36-0.32,0.29-1.19,0.79-1.04c0.5,0.15,0.86-1.33,0.86-1.33s1.16,1.07,1.38,1.44
		c0.22,0.37,1.75,1.22,1.29,1.55C46.76,47.24,46.36,47.08,46.4,47.66z M49.79,57.45c-0.49,1.37-0.69,1.99-0.69,1.99
		c-0.65,0.9-0.9-2.11-0.9-2.11s-0.2-2.52-0.62-3.22c-0.42-0.69-0.86-1.62-0.73-3.09c0.12-1.46,1.09,0.03,1.49,0.48
		s0.68,2.49,0.87,3.32C49.41,55.67,50.29,56.08,49.79,57.45z M49.7,51.77c-0.48-1.41-1.27-0.74-1.09-1.49
		c0.18-0.74,2.52,1.25,3.17,1.8c0.65,0.55,0.22,2.77,0.22,2.77s-1.44,0.12-1.71-0.23C50.02,54.29,50.18,53.19,49.7,51.77z
		 M52.54,58.56c-0.57,0.41-0.41-0.57-1.36-0.37c-0.95,0.2-0.2-0.95-0.2-0.95c0.3-0.75,1.38-0.84,1.88-0.64
		C53.37,56.8,53.12,58.15,52.54,58.56z M53.55,54.49c-0.85-0.05-0.69-1.03-0.9-2.11s-0.23-1.31-0.23-1.31
		c0.33-0.39,1.12,0.39,1.99,0.69c0.87,0.29,1.17,0.99,0.57,1.04C54.38,52.85,54.4,54.54,53.55,54.49z M54.44,56.59
		c1-1.17,1-1.17,1.11,0.27c0.12,1.44-0.24,3.04-0.63,2.71C54.93,59.58,53.45,57.76,54.44,56.59z M54.93,68.65
		c-0.7,0.3-1.73-0.47-1.73-0.47s-0.25-1.55-0.42-2.26c-0.18-0.71,1.49-0.97,2.6-0.81c0.66,0.09,0.62,1.24,0.34,2.2l0.58,0.14
		l0.66-0.78c0.98-1.29,1.54-1.94,2.38-2.01c0.84-0.07,1.29-0.47,2.48-0.8c1.18-0.34,3.12-0.37,3.12-0.37s1.91-0.28,1.87,0.7
		c-0.04,0.97-0.66,0.78-1.18,0.34c-0.52-0.44-1.02-0.64-1.93,0.03c-0.91,0.68-2.34,1.04-3.09,0.73c-0.75-0.3-1.97,1.13-2.28,1.76
		c-0.31,0.63-1.25,1.07-2.22,1.03c-0.27-0.01-0.46-0.09-0.59-0.19C55.33,68.28,55.12,68.57,54.93,68.65z M64.45,66.68
		c-0.94,0.32-0.89-0.53-0.89-0.53s0.55-0.65,1.49-0.97C66,64.86,65.39,66.36,64.45,66.68z M62.14,69.53
		c-1.64,0.62-1.33-0.01-2.41,0.07c-1.08,0.09-1.86,0.88-2.48,0.8c-0.61-0.07-1.85-0.46-0.92-0.89c0.33-0.15,0.77,0.54,1.79-0.27
		s1.18-0.34,2.26-0.42c1.08-0.09,1.27-0.71,2.24-0.79C63.59,67.96,63.78,68.91,62.14,69.53z M63.13,69.81c0,0,2.27-1.88,2.22-1.03
		C65.29,69.63,64.75,70.4,63.13,69.81z M55.09,76.63c0,0,1.65-0.5,3.16-1.34c1.5-0.85,3.41-1.24,3.08-0.85
		c-0.33,0.39-1.71,1.35-3.11,1.94S54.2,77.55,55.09,76.63z M61.14,76.62c0,0,3.59-3.44,2.97-2.18
		C63.48,75.71,62.25,76.9,61.14,76.62z M72.93,78.82c-0.62-0.19-2.5-1.01-1.66-1.08c0.84-0.07,3.35,1.06,3.35,1.06
		S73.55,79.01,72.93,78.82z M76.55,75.62c0.87,0.29,0.9,0.65,0.9,0.65s-0.98-0.16-1.84-0.33c-0.86-0.17-1.39-0.74-1.39-0.74
		C73.56,74.65,75.67,75.33,76.55,75.62z M74.09,76.67c0.61,0.07,1.45,0,2.58,0.52c1.13,0.51-0.19,0.62-0.83,0.19
		c-0.64-0.43-0.97-0.04-1.69,0.02c-0.72,0.06-1.42-1.1-1.42-1.1C72.57,75.82,73.48,76.6,74.09,76.67z M71.85,74.43
		c-0.43,0.64-0.14,1.22-0.11,1.58c0.03,0.36-0.02,1.21-0.63,1.14c-0.61-0.07-0.72-1.39-0.72-1.39S72.28,73.79,71.85,74.43z
		 M68.33,77.25c0.28,0.46,0.04,2.05-1.11,1.3C67.22,78.55,68.05,76.79,68.33,77.25z M67.46,76.96c-0.7,0.3-0.9,0.8-0.98,1.29
		c-0.08,0.49-0.83,0.19-0.83,0.19s0.06-0.73,0.73-1.39C67.05,76.39,68.16,76.66,67.46,76.96z M67.36,74.31
		c-0.99,1.17-2.71,3.85-3.08,3.88c-0.36,0.03-0.85-1.5-0.85-1.5s0.09-0.1,0.24-0.25c0.64-0.68,2.33-2.46,1.9-1.73
		c-0.53,0.89-0.53,0.89-0.53,0.89S68.36,73.14,67.36,74.31z M65.88,67.89c-0.49-0.08-0.19-0.83-0.19-0.83s0.68-0.54,1.07-0.21
		C67.15,67.19,66.37,67.97,65.88,67.89z M67,62.24c-0.43-0.81-1.13-0.51-2.31-0.18c-1.18,0.34-0.27-1.79-0.27-1.79
		c0.7-0.3,1.69-0.02,2.75,1.11C68.23,62.5,67.43,63.05,67,62.24z M66.77,59.47c-0.4-0.45-1.45-1.46-1.45-1.46
		c0.07-0.61,1.43-0.24,1.83,0.22c0.4,0.45,0.89,0.53,0.95,1.25S67.17,59.92,66.77,59.47z M69.36,59.99c0,0-0.42-0.69-0.94-1.13
		c-0.52-0.44-0.47-1.29-0.47-1.29c0.07-0.61,1.24,0.38,1.27,0.74c0.03,0.36,0.77,0.54,0.77,0.54L69.36,59.99z M69.38,54.3
		c-0.29-0.58-3.67-2-2.5-2.46c1.17-0.46,3.65,3.22,3.65,3.22S69.67,54.88,69.38,54.3z M69.32,48.58c0.41-0.32,1.15,1.58,0.88,1.82
		C69.92,50.65,69.32,48.58,69.32,48.58z M69.57,47.25c-0.41-0.55-0.75-0.3-1.19-0.27s-1.69-1.82-1.41-2.15
		c0.2-0.23,1.73-0.21,2.52,0.45c0.78,0.67,0.92,2.4,1.12,3.04C70.81,48.97,69.98,47.8,69.57,47.25z M71.39,56.68
		c0,0-0.36-3,0.2-2.07c0.56,0.92,0.89,1.99,0.89,1.99L71.39,56.68z M72.14,49.23c-0.34,0.25-0.73-0.01-1.02-0.94
		c-0.29-0.92-0.44-1.86-0.44-1.86c0.33-0.39,1.29-0.25,2.11-0.1s0.52,1.93,0.57,2.51C73.39,49.42,72.48,48.98,72.14,49.23z
		 M74.02,54.77c-0.96,0.08-1.04-2.46-1.04-2.46c0.09-0.37,1.25,0.5,1.25,0.5S74.98,54.7,74.02,54.77z M76.09,53.52
		c-0.54-0.68-1.19-2.81-1.19-2.81c-0.07-0.84,1.57-0.01,2.05,1.41C77.43,53.53,76.63,54.2,76.09,53.52z M77.21,47.95
		c-0.3,0.75-1.71,1.45-2.16,1.27s-0.35-3.4-0.35-3.4s0.74,0.09,1.16-0.09c0.42-0.18,0.63-0.34,1.27-0.54
		C77.77,44.99,77.51,47.19,77.21,47.95z M77,42.57c-0.68-0.04-1.19,0.97-2.53,1.18c-1.34,0.21,1.72-6.36,1.72-6.36l1.06-0.09
		c0,0,0.36,0.85,1.07,1.18c0.71,0.33,0.87-1.24,1.19-2.14c0.32-0.9,2.35-2.13,2.72-2.45c0.36-0.32,0.92-0.66,2.22-2.61
		c1.3-1.95,3.66-2.82,4.28-2.39c0.62,0.44,1.19-0.97,1.04-1.54c-0.14-0.57,0.74-1.71,1.77-3.35c1.03-1.64,2.92-2.37,5.41-2.87
		c2.49-0.49,3-0.15,3.8,0.18c0.8,0.32-1.47,1.09-1.74,1.31c-0.27,0.22-1.97,3.27-2.21,3.97c-0.24,0.7-1.72,2.76-2.41,3.89
		c-0.69,1.12-1.57,2.17-1.35,3.7c0.22,1.54-0.73,0.64-1.5,1.87c-0.78,1.23-1.12,0.58-0.44-0.64c0.68-1.22-0.73-1.79-1.01-2.83
		c-0.28-1.05,0.54-4.13-0.27-2.12c-0.81,2.01-1.37,2.35-1.9,1.8c-0.53-0.54-1.56-0.07-2.22,1.44c-0.66,1.51-3.06,3.06-3.35,4.25
		c-0.29,1.19-1.54,2.65-2.6,2.74c-1.06,0.09-0.69,1.12-1.22,1.75C78.01,43.07,77.68,42.61,77,42.57z M79.94,50.18
		c-0.09,0.37,0.93,2.59,0.34,2.76c-0.59,0.17-1.1-0.15-1.1-0.15s-1.19-2.81-0.76-3.45c0.43-0.64,2.19-1.39,2.35-0.92
		C80.92,48.89,80.03,49.81,79.94,50.18z M81.23,45.36c-0.48-0.54-0.1-1.3-0.67-1.04c-0.56,0.26-0.3,0.83-0.27,1.19
		c0.03,0.36-0.47,1.42-0.84,1.38c-0.37-0.04-0.3,0.83-0.73,0.86s-0.46-2.15-0.46-2.15l0.57-0.12c0,0,0.25-0.53,0.36-0.98
		s1.3-1.05,2.05-1.7c0.75-0.64,0.78-1.23,1.58-2.1c0.8-0.87-0.68,2.39-0.72,2.83S81.71,45.91,81.23,45.36z M84.54,50.18
		c-0.34,0.27-0.91-0.77-1.37-0.49c-0.46,0.28-0.15,1.1-1.04,0.57c0,0-0.48-2.99,0.55-2.22C83.7,48.79,84.88,49.91,84.54,50.18z
		 M83.62,42.72c0.08-1.37,1.45-2.55,1.4-1.86c0,0,0.43,2.98-0.01,3.5C84.57,44.88,83.53,44.08,83.62,42.72z M96.61,43.54
		c-0.24,0.6-0.85,1.23-0.81,1.74c0.04,0.51,0.75,1.18,0.09,1.09c-0.66-0.09-2.34,0.77-2.45,1.22c-0.11,0.45-0.91,0.51-1.19-0.27
		c-0.28-0.78-0.5-1.71-1.52-1.7c-1.02,0.01-2.15,0.47-2.97,1.19c-0.82,0.72-1.69,1.59-2.2,1.64c-0.51,0.04-0.68-0.31-0.68-0.31
		s1.9-0.81,2.9-2.06c0.99-1.25,1.52-3.77,2.6-2.98c1.08,0.79,2.2,2.01,2.46,2.5c0.26,0.49,0.48,1.42,1.22,0.7
		C94.8,45.58,96.85,42.94,96.61,43.54z M93.9,43.73c-0.56,0.24-1.44,0.21-0.44-0.64c0,0,2.52-2.44,2.75-3.23
		c0.23-0.8,0.85-1.53,0.9-0.85C97.17,39.68,94.47,43.5,93.9,43.73z M97.72,36.82c0.37-0.22,0.79,0.13,0.91,0.41
		c0.12,0.28-0.47,1.4-1.27,1.17C96.56,38.18,97.72,36.82,97.72,36.82z M99.2,44.06c-0.74-0.16-0.82,0.72-1.33,0.62
		c-0.52-0.1-0.32-1.21-0.32-1.21l-0.26-1.44c0,0,0.26-1.33,0.8-1.89c0.54-0.55,0.55,1.34-0.05,2.05c-0.6,0.7,0.49,0.69,1.43,0.54
		c0.94-0.15,0.57-0.19,0.89-0.66c0.33-0.46,1.25,0.19,1.08,0.79C101.27,43.46,99.94,44.22,99.2,44.06z M100.22,45.87
		c-1.02-0.87,1.04-1.61,1.04-1.61s0.75,0.3,0.77,1.47C102.05,46.89,101.24,46.74,100.22,45.87z M98.97,65.65
		c0.52,0.1,0.93,0.73,0.93,0.73s-0.14,0.96-1.19,0.61C97.67,66.63,98.97,65.65,98.97,65.65z M99.11,62.87
		c0.41-0.4,0.53,0.25,0.78,0.67c0.25,0.42-0.42,1.13-0.94,0.95C98.43,64.31,99.11,62.87,99.11,62.87z M97.62,62.48
		c-0.89-0.15,0.15-0.81,0.15-0.81s0.57-0.19,0.75,0.23C98.7,62.32,98.51,62.63,97.62,62.48z M97.45,60.38
		c-0.04,0.44-0.43,0.04-0.43,0.04s0.25-1.41,1.24-0.9C99.25,60.02,97.49,59.94,97.45,60.38z M97.32,57.77
		c-0.02,0.11-0.05,0.23-0.08,0.36c-0.01,0.03-0.01,0.06-0.02,0.09c-0.03,0.12-0.06,0.24-0.09,0.36c-0.01,0.04-0.02,0.09-0.03,0.13
		c-0.03,0.1-0.06,0.21-0.08,0.31c-0.02,0.07-0.04,0.13-0.06,0.2c-0.03,0.09-0.05,0.18-0.08,0.27c-0.02,0.06-0.04,0.13-0.06,0.2
		c-0.03,0.11-0.07,0.22-0.1,0.34c-0.02,0.07-0.04,0.15-0.07,0.22c-0.02,0.08-0.05,0.15-0.07,0.23c-0.03,0.09-0.05,0.17-0.08,0.26
		c-0.03,0.1-0.06,0.19-0.09,0.28c-0.01,0.04-0.03,0.08-0.04,0.12c-0.04,0.14-0.09,0.28-0.13,0.41c0,0.02-0.01,0.03-0.01,0.05
		c0,0.02-0.01,0.03-0.01,0.05C95.96,62.43,95.77,63,95.77,63s-0.21-3.05-0.27-4.81c0,0.03,0,0.05,0,0.08
		c-0.02,0.05-0.03,0.09-0.03,0.09s-0.75,0.64-1.27,0.47c-0.52-0.18,0.99-1.25,0.99-1.25c0.16,0.08,0.25,0.18,0.3,0.29
		c0,0.02,0,0.05,0,0.08c-0.02-0.54-0.02-0.92,0.01-0.98c0.13-0.23,2.09-2.06,2.09-2.06C97.49,56.3,97.48,57.03,97.32,57.77z
		 M95.15,66.11c0.27,0.63-2.13,3.38-2.62,3.64c-0.49,0.26-0.5-0.76-0.5-0.76l-0.1-0.28c0,0,1.42-1.43,2.08-2.28
		C94.67,65.56,94.88,65.47,95.15,66.11z M95.11,60.21c-0.1,0.52-0.72,1.01-1.05,1.4c-0.33,0.39-0.7,1.3-1.2,1.34
		c-0.51,0.04-1.08,0.16-0.9-0.29c0,0,0.2-1.18,0.77-1.3c0.57-0.12,1.15-0.17,1.54-0.78S95.21,59.69,95.11,60.21z M95.41,68.49
		c0,0,0.11,1.38-0.61,1.51C94.09,70.13,95.12,68.52,95.41,68.49z M91.73,71.63c-0.57,0.19-0.38-1.02-0.15-1.01
		C92.16,70.65,92.3,71.44,91.73,71.63z M90.99,68.78c-0.58,0.05-0.21-0.78-0.21-0.78l0.87-0.07C91.65,67.92,91.57,68.73,90.99,68.78
		z M93.75,73.22c-0.19,0.31-1.84,0.73-2.35,0.7c-0.51-0.03-0.99-0.58-0.48-0.54C90.92,73.37,93.95,72.91,93.75,73.22z M92.73,72.28
		c-1.17-0.05,0.52-0.77,1.58-1.22c1.06-0.45,2.11-0.1,2.11-0.1c0.02,0.22-0.62,0.49-1.11,0.74C94.82,71.97,93.9,72.33,92.73,72.28z
		 M93.92,55.42l1.36-0.26c0,0,0.1-0.52,0.28-1.04c0.18-0.52,1.47-0.77,1.61,0.09c0.14,0.86-2.31,2.08-3.03,2.21
		C93.43,56.55,93.92,55.42,93.92,55.42z M91.37,59.05c0,0,0.7-0.35,0.74-0.72c0.04-0.37,0.11-0.45,1.13-0.46s0.86-0.14,0.74,0.09
		c-0.13,0.23-0.48,0.33-0.93,1.17c-0.44,0.84-1.03,0.74-1.47,0.7S91.37,59.05,91.37,59.05z M90.78,65.29c0,0,0.24-0.6,0.67-0.71
		c0.43-0.11,0.93-0.22,1.28-0.4c0.35-0.17,1.33-0.69,2.01-1.26c0.68-0.57,0.19,0.57-0.19,1.25c-0.38,0.69-1.25,0.83-1.81,1.02
		c-0.57,0.19-0.94,1.02-1.5,1.29C90.68,66.76,90.78,65.29,90.78,65.29z M86.81,63.53c-0.04-0.32-0.07-0.64-0.11-0.96
		c0.53,0.37,1.34,0.9,1.98,1.07c1.04,0.28,1.6,0.02,2.01,0.49c0.4,0.48-1.23,0.97-2.36,0.55C87.76,64.48,87.21,63.98,86.81,63.53z
		 M87.76,65.76c0,0,1.06,0.5,1.7,1.25c0.64,0.75-0.46,0.62-1.17,0.02C87.59,66.43,87.76,65.76,87.76,65.76z M88.67,68.09
		c0,0,0.57-0.12,1.03,0.14c0.46,0.25,1.42,1.34,0.67,1.11C89.63,69.1,88.76,68.3,88.67,68.09z M90.68,71.28
		c0.73,0.01-0.26,1.33-0.76,1.45c-0.5,0.11-1.19-1.14-1.19-1.14S89.95,71.27,90.68,71.28z M88.98,74.55
		c-0.43,0.11-0.66-0.89-0.66-0.89s0.5-0.19,0.71-0.2c0.22-0.02,0.72-0.13,0.99,0.5C90.29,74.59,89.4,74.44,88.98,74.55z
		 M90.42,76.18c-0.46-0.25-0.27-0.63,0.37-0.83c0.64-0.2,0.9,0.29,0.55,0.54C91,76.14,90.42,76.18,90.42,76.18z M91.92,77.67
		c-1.1-0.06-0.65-0.82-0.65-0.82c0.18-0.45,0.74,0.16,1.2,0.41C92.93,77.51,93.02,77.72,91.92,77.67z M92.76,75.34
		c0,0,1.36-0.26,2.02-0.24c0.66,0.02-0.22,0.89-1.16,1.04C92.69,76.29,92.76,75.34,92.76,75.34z M95.68,76.34
		c-0.82-0.23,0.42,1.57-0.07,1.9c-0.48,0.33-1.06-1.44-1.06-1.44s0.39-0.54,0.61-0.63c0.21-0.09,0.69-0.49,0.69-0.49l-0.44-0.98
		l2.04,0.05c0,0-1.24,0.03-1.36,0.33c-0.12,0.3,1.13,1.37,1.84,2.04C98.64,77.78,96.5,76.57,95.68,76.34z M97.4,74.24
		c-0.38-0.26-0.75-0.23-1.33-0.18c-0.58,0.05,0.18-0.52,0.18-0.52c0.43-0.11,0.73,0.01,1.04,0.21c0.31,0.19,0.81,0.15,1.42,0.47
		S97.79,74.5,97.4,74.24z M100.21,71.02c-0.66-0.09-1.11-0.2-0.92,0.37c0.19,0.57-0.05,1.24-0.49,1.13s-0.87-0.8-0.87-0.8
		s0.89-1.68,0.98-1.46c0.09,0.21,1.5-0.34,1.7,0.23C100.79,71.05,100.87,71.11,100.21,71.02z M101.11,68.62c0.84,0.44,1,1.6,1,1.6
		s-0.36,0.03-0.89-0.22c-0.53-0.25-0.49-0.62-1.09-0.86c-0.6-0.24-0.57,0.12-1.48-0.32s-0.14-0.79,0.53-0.7
		C99.83,68.21,100.27,68.17,101.11,68.62z M99.71,59.47c-0.59-0.03-0.24-1.22-0.24-1.22s0.26-0.39,0.62-0.49
		c0.36-0.1,0.97,0.21,1.1,1C101.32,59.56,100.3,59.5,99.71,59.47z M101.77,61.49c-0.3,0.83-0.24,0.6-0.66-0.09
		c-0.42-0.7,0.3-1.7,0.3-1.7C102.05,59.57,102.07,60.67,101.77,61.49z M98.97,54.79c-2.24,0.18-0.85-0.66-0.85-0.66
		s3.05-0.17,4.5-0.22C104.07,53.87,101.22,54.61,98.97,54.79z M103.43,46.78c-0.21,0.96-1.01,1.03-1.01,1.03s-0.35-0.77,0.01-0.8
		c0,0,0.75,0.3,0.76-0.5C103.2,45.71,103.64,45.82,103.43,46.78z M108.33,53.31c-0.56,0.34-1.1-0.06-1.45,0.04
		c-0.36,0.1-0.82,0.65-1.4,0.7c-0.58,0.05-0.45-1.06-0.45-1.06c0.39-0.54,1.79-0.44,2.2-0.76c0.41-0.32,0.54-0.55,2-0.45
		C110.69,51.88,108.88,52.97,108.33,53.31z M114.64,44.78c-1.12-0.35-1.59-1.68-1.61-1.91c-0.05-0.58,0.63-0.27,0.81,0.15
		c0.18,0.42-0.01,0.73,1.14,1.44C116.13,45.18,115.76,45.13,114.64,44.78z M112.98,39.6c0,0,3.63,0.73,1.55,1.11
		C112.45,41.1,112.98,39.6,112.98,39.6z M111.02,39.68l0.79,0.74c0,0-0.63,0.34-1.41-0.32C109.61,39.43,111.02,39.68,111.02,39.68z
		 M107.4,38.22c0.78-0.28,0.81,1.03,1.02,1.81c0.21,0.78,1.86,0.51,3.05,1.65c1.19,1.14,0.95,1.82,1.35,2.3
		c0.4,0.48-0.25,0.46-0.25,0.46s0,0-1.19-0.34c-1.19-0.34-1.38-1.78-1.48-2.07c-0.1-0.28-1.96,0.09-2.26,0.04
		c-0.3-0.05-0.77-1.47-0.45-1.93c0.33-0.46-0.38-1.14-0.38-1.14C106.71,38.65,106.62,38.51,107.4,38.22z M107.71,44.76
		c0.7,0.6-0.15,0.89-0.88,0.87c-0.73-0.01-1.05-0.43-2.01-0.57c-0.96-0.14-1.21-0.49-1.19-1.22c0.01-0.73,0.92-0.37,0.92-0.37
		s0.96,0.21,1.43,0.61S107.01,44.16,107.71,44.76z M103.87,42.3c-0.72,0.06-0.13-0.72-0.13-0.72s0.64-0.2,0.92-0.29
		c0.28-0.1,0.6,0.17,1.27,0.34C106.6,41.79,104.59,42.24,103.87,42.3z M104.57,38.38c0.22-0.02,0.67,0.16,0.7,0.53
		c0.03,0.36-0.87,0.94-1.23,0.97s-0.27-1.58-0.27-1.58C103.74,38.01,104.36,38.4,104.57,38.38z M104.16,34.74
		c-0.27,0.31-1.94-1.2-2.06-1.49c0,0,0.67-0.15,1.08,0.11c0.41,0.26,1.17,0,1.81-0.44C105.63,32.49,104.43,34.43,104.16,34.74z
		 M108.77,27.98c-1.11,0.75-2.65,1.53-2.82,2.12c-0.17,0.6-0.8,1.81-0.99,1.32c-0.19-0.5-0.87-0.8,0.34-2.07
		c1.21-1.26,1.32-2.58,2.21-2.44c0.89,0.15,0.91-0.44,1.24-0.9c0.33-0.46,2.07-0.53,1.95-0.23
		C110.7,25.79,109.87,27.24,108.77,27.98z M115.71,23.71c-0.19-0.57-0.53-0.25-0.89,0.73c-0.36,0.98,0.32,1.21,0.43,1.71
		c0.11,0.5-1.01,0.08-1.05-0.42c-0.04-0.51-0.36,0.03-0.75-0.23c-0.39-0.26,1.35-2.3,1.35-2.3c0.88-0.87,1.49,0.39,1.46,0.98
		C116.23,24.76,115.9,24.27,115.71,23.71z M115.41,20.96c-0.8,0.06,0.02-0.66-0.38-1.06c-0.4-0.41-0.3,0.83-1.39,1.72
		c-1.09,0.89,1.39-3.61,1.39-3.61c0.25-0.53,0.84,0.44,0.87,0.8c0.03,0.36,0.26,0.56,0.85,1.53
		C117.34,21.32,116.21,20.9,115.41,20.96z M112.98,31.43c0,0,0.83-0.58,1.24-0.9c0.41-0.32,1.35-0.47,1.24,0.05
		C115.36,31.1,114.09,31.71,112.98,31.43z M117.09,29.13c-0.78,0.21-0.46-0.33-0.46-0.33s1.23-1.05,1.74-1.01
		C118.88,27.82,117.88,28.93,117.09,29.13z M125.56,5.78c0.21-0.16,1.04,0.28,2.01,1.44c0.97,1.16,2.75,2.4,2.75,2.4
		s-0.05,0.3-0.41,0.32c-0.36,0.03-1.45-0.76-1.92-1.16c-0.47-0.4-1.15-1.58-1.7-2.05C125.75,6.28,125.36,5.95,125.56,5.78z
		 M131.15,12.77c-0.42,0.18-0.63,0.27-0.63,0.27s0.26-1.33-0.35-1.65c-0.61-0.32-1.28-0.55-1.77-0.22s-0.96,0.73-1.31,0.98
		c-0.34,0.25-0.77,1.3-1.18,1.7c-0.41,0.4-0.56,0.26-1.05,0.59c-0.48,0.33-0.29,0.97-0.9,1.46c-0.62,0.49-1.66,1.15-2.29,1.42
		c-0.63,0.27-1.86,1.39-2.14,2.36c-0.29,0.97-0.61,4.13-0.61,4.13s-1.54,0.85-1-1.6c0.53-2.45,2.53-4.72,2.93-5.26
		s0.27-1.19,1.32-1.71c1.05-0.52,2.5-1.59,2.73-2.33c0.23-0.75,0.18-1.4,0.9-1.46c0.72-0.06,1.19,0.27,1.66-0.21
		c0.47-0.48,0.8-0.94,1.83-0.8c1.03,0.14,1.64,0.45,1.83,0.95C131.3,11.88,131.58,12.59,131.15,12.77z M133.34,13.68
		c-0.41,0.32-0.29,0.02-0.56-0.61c-0.27-0.63-0.47-1.27-0.47-1.27s0.94-0.08,1.46,0.03c0.52,0.1,0.54,0.32,0.66,0.89
		C134.55,13.3,133.75,13.36,133.34,13.68z M138.68,18.16c-0.52-0.44,0,0-0.57,0.14c-0.57,0.14,0.91-1.92,0.91-1.92
		C139.17,16.96,139.21,18.61,138.68,18.16z"/>
	<polygon class="st0" points="127.1,0.07 127.1,0.08 127.11,0.07 	"/>
	<path class="st0" d="M34.49,60.98c-0.01,0.02-0.03,0.04-0.04,0.06c0,0,0,0,0,0C34.47,61.02,34.48,61,34.49,60.98z"/>
	<path class="st0" d="M31.03,65.71c0.17-0.18,0.34-0.38,0.52-0.6C31.37,65.33,31.2,65.53,31.03,65.71z"/>
	<path class="st0" d="M34.09,56.3c0.39,0.92,0.43,3.2,0.4,4.68c0.58-0.9,1.16-1.83,1.7-2.75c-0.45-1.59-1.34-4.01-2.66-4.31
		c-1.15-0.26-2.95-0.67-4.19-1.09c-0.29,0.38-0.58,0.76-0.87,1.13C29.73,54.22,33.59,55.12,34.09,56.3z"/>
	<path class="st0" d="M76.22,56.84c-0.01,0-0.02,0-0.03,0c0.03,0,0.06-0.01,0.09-0.01C76.26,56.84,76.24,56.84,76.22,56.84
		C76.22,56.84,76.22,56.84,76.22,56.84L76.22,56.84z"/>
	<path class="st0" d="M36.21,58.2c-0.01,0.01-0.01,0.02-0.02,0.03c0,0,0,0,0,0C36.2,58.22,36.21,58.21,36.21,58.2z"/>
	<path class="st0" d="M87.52,70.45c-0.03-0.3-0.06-0.62-0.09-0.93c0,0,0,0,0,0C87.46,69.84,87.49,70.14,87.52,70.45z"/>
	<path class="st0" d="M44.01,56.21c0.05,0.04,0.09,0.08,0.14,0.12c-0.04-0.03-0.07-0.06-0.1-0.09
		C44.03,56.23,44.02,56.22,44.01,56.21z"/>
	<path class="st0" d="M18.28,70.28c0.53,0.93-0.09,3.27-0.64,4.9c0.74-0.44,1.49-0.88,2.26-1.28c-0.14,0.07-0.28,0.15-0.42,0.23
		c0.18-1.57,0.47-3.73,0.66-3.27c0.22,0.51,0.92,1.49,1.43,2.07c0.44-0.27,0.89-0.56,1.37-0.88c0.1-1.96-1.25-2.6-3.63-4.03
		c-1.09-0.65-1.98-1-2.64-1.18c0.01-0.01,0.01-0.01,0.02-0.02c-0.48,0.42-0.93,0.82-1.34,1.17c0.03-0.02,0.05-0.05,0.08-0.07
		C16.51,68.4,17.75,69.34,18.28,70.28z"/>
	<path class="st0" d="M86.42,60.04c-0.01-0.07-0.01-0.14-0.02-0.2l0,0C86.41,59.91,86.41,59.98,86.42,60.04z"/>
	<path class="st0" d="M47.14,75.01c0.36,0.49,0.85,0.91,1.32,1.34C47.99,75.92,47.5,75.5,47.14,75.01z"/>
	<path class="st0" d="M64.6,23.47c0.01,0,0.02,0,0.03-0.01v0C64.62,23.47,64.61,23.47,64.6,23.47z"/>
	<path class="st0" d="M34.27,48.06c0.35,1.3,1.13,1.97,2.41,2.83c0.9,0.61,1.63,2.07,2,3.09c-0.01,0.01-0.02,0.03-0.03,0.04
		c0.04-0.05,0.09-0.11,0.13-0.16c-0.02,0.03-0.05,0.05-0.07,0.08c-0.49-2.24-1.96-4.68-2.91-6.49c-0.41-0.79-0.69-1.53-0.87-2.18
		c0.01-0.02,0.02-0.04,0.04-0.06c-0.26,0.42-0.67,1.02-1.2,1.76c0.01-0.02,0.03-0.04,0.04-0.06C34,47.23,34.16,47.63,34.27,48.06z"
		/>
	<path class="st0" d="M48.29,69.9C48.29,69.9,48.29,69.9,48.29,69.9c0.03-0.04,0.07-0.08,0.1-0.12
		C48.36,69.82,48.33,69.86,48.29,69.9z"/>
	<path class="st0" d="M49.47,77.01C49.47,77,49.47,77,49.47,77.01c-0.03-0.01-0.05-0.02-0.08-0.03C49.41,76.98,49.44,77,49.47,77.01
		z"/>
	<path class="st0" d="M1.52,73.3c-0.18,0.02-0.36,0.04-0.54,0.06c-0.38,0.04-0.7,0.11-0.98,0.2c1.29,1.33,1.78,4.2,1.97,5.93
		c0.98,0.21,1.7,0.23,2.16,0.2c-0.15-1.28-0.4-2.99-0.74-3.62C3.05,75.46,1.99,74.28,1.52,73.3z"/>
	<path class="st0" d="M7.68,73.91c0.4,1.29,0.38,3.47,0.14,5.01c1.17-0.25,2.44-0.53,3.41-0.73c-0.17-1.07-0.5-2.53-1.06-3.4
		c-0.56-0.87-1.64-2.06-2.44-2.91c-0.48,0.15-0.97,0.3-1.48,0.44c0,0,0,0,0,0C6.93,72.69,7.47,73.21,7.68,73.91z"/>
	<path class="st0" d="M34.49,52.27c1,0.4,0.5,0.2,1.1,1.61c0.6,1.4,1.3,1.11,1.33,3.04c0,0.02,0,0.03,0,0.05
		c0.3-0.54,0.59-1.07,0.85-1.57c0.17-0.34,0.35-0.64,0.54-0.91c-0.02,0.04-0.05,0.07-0.07,0.11c-0.35-0.73-0.89-1.73-1.44-2.26
		c-0.92-0.89-2.17-1.4-2.48-2.22c-0.17-0.46-0.87-1.27-1.36-2.04c0-0.01,0.01-0.01,0.01-0.02c-0.16,0.21-0.32,0.43-0.48,0.65
		c0.01,0.03,0.02,0.06,0.03,0.1C32.76,50.24,33.49,51.87,34.49,52.27z"/>
	<path class="st0" d="M4.75,79.6c0,0-0.21,0.07-0.62,0.1C4.55,79.66,4.75,79.6,4.75,79.6z"/>
	<path class="st0" d="M31.03,65.71c-0.02,0.02-0.04,0.04-0.06,0.06c0,0,0,0,0,0C30.99,65.76,31.01,65.73,31.03,65.71z"/>
	<path class="st0" d="M55.62,29.33c0.89,0.22,0.3-1.09-0.74-1.98c-0.31-0.27-0.38-0.58-0.33-0.91c-0.04,0.01-0.07,0.02-0.11,0.03
		c-0.21,0.06-0.42,0.12-0.63,0.19c-0.03,0.01-0.07,0.02-0.1,0.04c-0.19,0.76-0.45,1.6-0.49,1.75
		C53.14,28.75,54.72,29.11,55.62,29.33z"/>
	<path class="st0" d="M23.31,66.61c0.84,1.27,0.67,3.43,0.41,4.92c0.95-0.65,1.92-1.35,2.84-2.04c-0.11-1.18-0.32-3.07-0.51-3.46
		c-0.29-0.58-1.43-1.22-2.95-2.06c-0.83-0.46-1.83-0.66-2.56-0.74c-0.4,0.39-0.8,0.77-1.2,1.15c0.01-0.01,0.01-0.01,0.02-0.02
		C20.76,64.74,22.53,65.44,23.31,66.61z"/>
	<path class="st0" d="M21.58,72.93L21.58,72.93c-0.07,0.04-0.14,0.09-0.21,0.13C21.44,73.01,21.5,72.97,21.58,72.93z"/>
	<path class="st0" d="M13.29,72.98c0.44,0.98,0.99,2.74,1.13,4.08c0.6-0.32,1.24-0.7,1.9-1.09c0.12-0.78,0.27-1.8,0.3-2.29
		c0.05-0.85-1.34-1.59-3.36-2.63c-0.55-0.28-1.07-0.5-1.55-0.66c-0.23,0.11-0.48,0.21-0.75,0.33C11.86,71.29,12.9,72.11,13.29,72.98
		z"/>
	<path class="st0" d="M26.08,62.03c1.8,0.92,1.85,4.4,1.7,6.52c1.29-1.01,2.38-1.92,2.98-2.54c0.07-0.07,0.14-0.15,0.21-0.23
		c-0.16-1.9-0.46-6.04,0-6.08c0.36-0.03,1.73,1.28,2.68,2.54c0.26-0.39,0.53-0.79,0.8-1.2c-0.14-1.16-0.7-2.83-2.7-3.71
		c-1.53-0.67-3.45-0.96-4.98-1.18c-0.71,0.91-1.34,1.72-1.82,2.33c0.19-0.24,0.4-0.51,0.62-0.8c1.39,0.26,3.33,0.68,3.73,0.81
		c0.62,0.19-0.03,1.09-0.51,1.13c-0.48,0.04,1.3,2.68,1.36,3.4c0.06,0.72-1.33-1.47-3.46-2.38c-1.1-0.47-2.08-0.76-2.78-0.93
		c0.03-0.04,0.06-0.07,0.1-0.11c-0.33,0.38-0.7,0.78-1.1,1.2c0.02-0.02,0.04-0.04,0.06-0.06C23.84,61.02,24.93,61.44,26.08,62.03z"
		/>
	<path class="st0" d="M23.71,71.52C23.71,71.52,23.71,71.52,23.71,71.52c-0.26,0.18-0.51,0.35-0.77,0.52
		C23.2,71.87,23.46,71.7,23.71,71.52z"/>
	<path class="st0" d="M27.78,68.55L27.78,68.55c0,0-0.01,0.01-0.01,0.01C27.77,68.56,27.78,68.55,27.78,68.55z"/>
</g>
</svg>
