<svg xmlns="http://www.w3.org/2000/svg" viewBox="0 0 228.16 40"><defs><style>.cls-1,.cls-2{fill:#4b5353;}.cls-2{font-size:16px;font-family:OpenSans, Open Sans;}.cls-3{letter-spacing:0em;}.cls-4{letter-spacing:0em;}.cls-5{letter-spacing:0em;}.cls-6{letter-spacing:0em;}.cls-7{letter-spacing:0.01em;}.cls-8{letter-spacing:0.01em;}.cls-9{letter-spacing:-0.01em;}.cls-10{letter-spacing:0.02em;}.cls-11{letter-spacing:-0.01em;}.cls-12{letter-spacing:-0.01em;}.cls-13{letter-spacing:-0.02em;}.cls-14{letter-spacing:0.01em;}.cls-15{letter-spacing:-0.01em;}.cls-16,.cls-17,.cls-18,.cls-19,.cls-20,.cls-21{font-family:OpenSans-Bold, Open Sans;font-weight:700;}.cls-16{letter-spacing:-0.01em;}.cls-17{letter-spacing:0em;}.cls-18{letter-spacing:-0.01em;}.cls-19{letter-spacing:0.06em;}.cls-20{letter-spacing:0.03em;}.cls-22{letter-spacing:0.01em;}.cls-23{letter-spacing:-0.01em;}.cls-24{letter-spacing:0em;}.cls-25{letter-spacing:0.02em;}.cls-26{letter-spacing:0em;}.cls-27{letter-spacing:-0.01em;}.cls-28{letter-spacing:0em;}</style></defs><title>Asset 1</title><g id="Layer_2" data-name="Layer 2"><g id="Capa_1" data-name="Capa 1"><circle class="cls-1" cx="34.78" cy="5.22" r="5.22"/><circle class="cls-1" cx="20" cy="20" r="5.22"/><text class="cls-2" transform="translate(55 15.51)"><tspan class="cls-3">B</tspan><tspan class="cls-4" x="10.35" y="0">I</tspan><tspan class="cls-5" x="14.79" y="0">O</tspan><tspan class="cls-6" x="27.2" y="0">D</tspan><tspan class="cls-7" x="38.8" y="0">I</tspan><tspan class="cls-8" x="43.4" y="0">V</tspan><tspan class="cls-9" x="53.06" y="0">E</tspan><tspan class="cls-10" x="61.72" y="0">R</tspan><tspan class="cls-11" x="71.98" y="0">S</tspan><tspan class="cls-12" x="80.61" y="0">I</tspan><tspan class="cls-13" x="84.96" y="0">D</tspan><tspan class="cls-14" x="96.32" y="0">A</tspan><tspan x="106.61" y="0">D</tspan><tspan class="cls-15" x="0" y="18">E</tspan><tspan x="8.67" y="18">N </tspan><tspan class="cls-16" x="24.88" y="18">C</tspan><tspan class="cls-17" x="34.99" y="18">I</tspan><tspan class="cls-18" x="40.23" y="18">F</tspan><tspan class="cls-19" x="48.8" y="18">R</tspan><tspan class="cls-20" x="60.28" y="18">A</tspan><tspan class="cls-21" x="71.81" y="18">S</tspan></text><text class="cls-2" transform="translate(151.02 33.59)"><tspan class="cls-22">S</tspan><tspan class="cls-23" x="8.95" y="0">a</tspan><tspan class="cls-24" x="17.75" y="0">n</tspan><tspan class="cls-25" x="27.51" y="0">t</tspan><tspan class="cls-23" x="33.42" y="0">a</tspan><tspan class="cls-26" x="42.21" y="0">n</tspan><tspan class="cls-27" x="51.99" y="0">d</tspan><tspan class="cls-28" x="61.71" y="0">e</tspan><tspan x="70.61" y="0">r</tspan></text><path class="cls-1" d="M20,10.45a9.55,9.55,0,0,0,0,19.1,5.23,5.23,0,1,1-5.22,5.23,9.56,9.56,0,0,0-9.56-9.56h0A5.22,5.22,0,0,1,0,20H0a5.22,5.22,0,0,1,5.22-5.22h0a9.56,9.56,0,0,0,9.56-9.56A5.22,5.22,0,1,1,20,10.45Z"/><circle class="cls-1" cx="143.32" cy="27.82" r="1.38"/></g></g></svg>